<?xml version="1.0" encoding="UTF-8" standalone="no"?>
<svg
   xmlns:dc="http://purl.org/dc/elements/1.1/"
   xmlns:cc="http://creativecommons.org/ns#"
   xmlns:rdf="http://www.w3.org/1999/02/22-rdf-syntax-ns#"
   xmlns:svg="http://www.w3.org/2000/svg"
   xmlns="http://www.w3.org/2000/svg"
   xmlns:sodipodi="http://sodipodi.sourceforge.net/DTD/sodipodi-0.dtd"
   xmlns:inkscape="http://www.inkscape.org/namespaces/inkscape"
   aria-hidden="true"
   data-prefix="fal"
   data-icon="times-square"
   role="img"
   viewBox="0 0 448 448"
   version="1.1"
   id="svg902"
   sodipodi:docname="closeIcon.svg"
   width="448"
   height="448"
   inkscape:version="0.92.3 (2405546, 2018-03-11)">
  <metadata
     id="metadata908">
    <rdf:RDF>
      <cc:Work
         rdf:about="">
        <dc:format>image/svg+xml</dc:format>
        <dc:type
           rdf:resource="http://purl.org/dc/dcmitype/StillImage" />
        <dc:title></dc:title>
      </cc:Work>
    </rdf:RDF>
  </metadata>
  <defs
     id="defs906" />
  <sodipodi:namedview
     pagecolor="#ffffff"
     bordercolor="#666666"
     borderopacity="1"
     objecttolerance="10"
     gridtolerance="10"
     guidetolerance="10"
     inkscape:pageopacity="0"
     inkscape:pageshadow="2"
     inkscape:window-width="1920"
     inkscape:window-height="966"
     id="namedview904"
     showgrid="false"
     fit-margin-top="0"
     fit-margin-left="0"
     fit-margin-right="0"
     fit-margin-bottom="0"
     inkscape:zoom="1.5039062"
     inkscape:cx="224"
     inkscape:cy="224"
     inkscape:window-x="0"
     inkscape:window-y="27"
     inkscape:window-maximized="1"
     inkscape:current-layer="svg902" />
  <path
     d="M 400,0 H 48 C 21.5,0 0,21.5 0,48 v 352 c 0,26.5 21.5,48 48,48 h 352 c 26.5,0 48,-21.5 48,-48 V 48 C 448,21.5 426.5,0 400,0 Z m 16,400 c 0,8.8 -7.2,16 -16,16 H 48 c -8.8,0 -16,-7.2 -16,-16 V 48 c 0,-8.8 7.2,-16 16,-16 h 352 c 8.8,0 16,7.2 16,16 z m -97.2,-245.3 -69.3,69.3 69.3,69.3 c 4.7,4.7 4.7,12.3 0,17 l -8.5,8.5 c -4.7,4.7 -12.3,4.7 -17,0 L 224,249.5 154.7,318.8 c -4.7,4.7 -12.3,4.7 -17,0 l -8.5,-8.5 c -4.7,-4.7 -4.7,-12.3 0,-17 L 198.5,224 129.2,154.7 c -4.7,-4.7 -4.7,-12.3 0,-17 l 8.5,-8.5 c 4.7,-4.7 12.3,-4.7 17,0 l 69.3,69.3 69.3,-69.3 c 4.7,-4.7 12.3,-4.7 17,0 l 8.5,8.5 c 4.6,4.7 4.6,12.3 0,17 z"
     class=""
     id="path900"
     inkscape:connector-curvature="0"
     style="fill:#d40000;fill-opacity:1" />
</svg>
